<?xml version="1.0" encoding="UTF-8"?>
<svg width="24" height="24" viewBox="0 0 24 24" fill="none" xmlns="http://www.w3.org/2000/svg">
    <path d="M12 2C6.477 2 2 6.477 2 12C2 16.42 4.865 20.17 8.84 21.5C9.34 21.58 9.53 21.27 9.53 21C9.53 20.77 9.52 20.14 9.52 19.47C7 20.09 6.36 18.77 6.36 18.77C5.69 17.06 4.68 16.7 4.68 16.7C3.53 16.05 4.79 16.06 4.79 16.06C6.1 16.11 6.69 17.39 6.69 17.39C7.83 19.19 9.5 18.68 9.54 18.43C9.59 18.17 9.73 17.9 9.89 17.73C7.1 17.41 4.13 16.3 4.13 11.7C4.13 10.36 4.59 9.26 5.37 8.42C5.27 8.13 4.97 6.97 5.61 5.27C5.61 5.27 6.62 4.95 9.52 6.64C10.32 6.41 11.16 6.3 12 6.3C12.84 6.3 13.68 6.41 14.48 6.64C17.38 4.94 18.39 5.27 18.39 5.27C19.03 6.97 18.73 8.13 18.63 8.42C19.41 9.26 19.87 10.36 19.87 11.7C19.87 16.31 16.9 17.41 14.1 17.73C14.33 17.97 14.54 18.43 14.54 19.22C14.54 20.39 14.52 21.28 14.52 21C14.52 21.27 14.71 21.59 15.21 21.5C19.14 20.16 22 16.42 22 12C22 6.477 17.523 2 12 2Z" fill="hsl(45, 54%, 58%)"/>
</svg> 